<svg width="21" height="16" viewBox="0 0 21 16" fill="none" xmlns="http://www.w3.org/2000/svg">
<g clip-path="url(#clip0_28_2)">
<path d="M3.21059 8.41998C3.0332 8.41998 2.8556 8.33709 2.74293 8.18278L0.782505 5.48582C0.64456 5.29442 0.684004 5.02586 0.872724 4.88593C1.06144 4.74601 1.32622 4.78581 1.46416 4.97722L3.26682 7.45709L5.7117 5.62864C5.9004 5.48871 6.16233 5.52873 6.30333 5.72014C6.44128 5.91159 6.40182 6.18015 6.21312 6.32007L3.55709 8.30569C3.4527 8.38284 3.33437 8.41998 3.21342 8.41998H3.21059Z" fill="#2E3192"/>
<path d="M3.19648 8.42293C2.96265 8.42293 2.77393 8.23148 2.77393 7.99432C2.77393 3.58604 6.30882 0.000488281 10.6551 0.000488281C12.7197 0.000488281 14.6716 0.806194 16.1533 2.26618C16.3193 2.43174 16.325 2.70319 16.1617 2.87184C15.9983 3.04028 15.7307 3.04602 15.5644 2.88024C14.2436 1.57476 12.5 0.857474 10.6579 0.857474C6.77932 0.857474 3.62186 4.06017 3.62186 7.99432C3.62186 8.23148 3.43314 8.42293 3.19931 8.42293H3.19648Z" fill="#2E3192"/>
<path d="M10.655 15.9883C8.55383 15.9883 6.57638 15.1598 5.08931 13.6541C4.92303 13.4856 4.92303 13.2142 5.08931 13.0484C5.25274 12.8797 5.5201 12.8797 5.68638 13.0484C7.01592 14.3941 8.77914 15.134 10.655 15.134C14.5336 15.134 17.6911 11.9313 17.6911 7.99712C17.6911 7.76017 17.8798 7.56873 18.1136 7.56873C18.3472 7.56873 18.536 7.76017 18.536 7.99712C18.536 12.4056 15.001 15.9912 10.655 15.9912V15.9883Z" fill="#2E3192"/>
<path d="M20.2486 11.2398C20.1189 11.2398 19.9923 11.1799 19.9078 11.0656L18.1051 8.58575L15.6603 10.4142C15.4715 10.5541 15.2096 10.5141 15.0688 10.3227C14.9306 10.1313 14.9701 9.86269 15.1588 9.72281L17.8179 7.73715C18.0742 7.54575 18.4375 7.60011 18.629 7.86295L20.5894 10.5599C20.7274 10.7513 20.6879 11.0199 20.4992 11.1598C20.4232 11.217 20.336 11.2427 20.2486 11.2427V11.2398Z" fill="#2E3192"/>
</g>
<defs>
<clipPath id="clip0_28_2">
<rect width="20" height="16" fill="white" transform="translate(0.700317)"/>
</clipPath>
</defs>
</svg>
